<?xml version="1.0" standalone="no"?>
<!DOCTYPE svg PUBLIC "-//W3C//DTD SVG 20010904//EN"
 "http://www.w3.org/TR/2001/REC-SVG-20010904/DTD/svg10.dtd">
<svg version="1.0" xmlns="http://www.w3.org/2000/svg"
 width="238.000000pt" height="237.000000pt" viewBox="0 0 238.000000 237.000000"
 preserveAspectRatio="xMidYMid meet">

<g transform="translate(0.000000,237.000000) scale(0.100000,-0.100000)"
fill="#000000" stroke="none">
<path d="M2094 2169 c-35 -18 -92 -37 -139 -45 -113 -20 -170 -41 -250 -92
-39 -26 -85 -47 -103 -48 -19 -2 -47 -10 -64 -19 -17 -8 -43 -15 -58 -15 -15
0 -52 -11 -81 -24 -30 -13 -80 -27 -111 -31 -32 -3 -60 -11 -64 -16 -4 -6 -11
-5 -20 2 -11 9 -13 24 -8 55 5 37 3 44 -16 54 -12 6 -38 26 -58 44 -38 34
-108 66 -142 66 -79 0 -153 -138 -110 -207 12 -18 61 -54 129 -93 l26 -15 -45
-6 c-25 -4 -74 -17 -110 -28 -53 -18 -95 -23 -225 -26 -88 -3 -205 -9 -259
-15 -93 -9 -104 -9 -152 11 -50 21 -54 21 -78 5 -38 -25 -59 -62 -52 -91 10
-40 45 -50 118 -34 65 14 140 15 293 2 50 -5 124 -4 165 0 64 8 76 6 86 -8 33
-45 77 -65 141 -65 86 0 125 -18 157 -72 31 -53 32 -62 8 -49 -41 22 -256 91
-283 91 -16 0 -45 -6 -63 -14 -30 -13 -36 -20 -46 -71 -6 -31 -25 -95 -41
-142 -33 -99 -35 -123 -14 -204 15 -59 23 -144 15 -153 -10 -9 -56 -10 -121
-2 -69 8 -101 0 -125 -32 -8 -11 -15 -12 -32 -3 -11 6 -28 11 -36 11 -26 0
-56 -38 -56 -69 0 -37 28 -71 100 -122 75 -52 83 -80 14 -44 -64 33 -125 0
-110 -60 10 -40 91 -69 118 -42 12 12 25 13 69 4 30 -5 62 -17 71 -25 10 -8
34 -16 54 -17 29 -2 64 -23 160 -95 68 -50 124 -94 124 -97 0 -3 -6 -1 -13 4
-6 6 -25 13 -41 17 -38 9 -66 -16 -66 -61 0 -27 5 -35 26 -43 36 -14 70 -12
83 4 19 23 100 9 144 -26 92 -72 238 -109 291 -75 22 15 24 25 31 132 7 109 9
117 32 132 22 15 25 22 19 59 -4 33 -1 48 14 67 23 29 25 57 8 104 -10 28 -9
41 7 85 11 29 22 82 25 118 l5 65 67 6 c67 6 110 25 126 56 5 10 12 63 15 118
4 55 13 118 21 140 28 73 20 157 -24 283 -54 154 -53 173 11 233 50 46 51 48
45 91 -7 44 -6 44 31 57 21 7 101 43 178 81 139 67 141 68 236 72 100 4 132
16 127 47 -1 9 1 22 6 29 14 23 -14 61 -53 72 -53 15 -63 13 -127 -21z m-1144
-1054 c12 -13 65 -52 117 -86 l94 -62 -31 -32 c-16 -17 -30 -40 -30 -52 0 -11
-7 -27 -16 -34 -12 -10 -15 -23 -10 -54 4 -22 11 -71 15 -108 5 -37 16 -76 24
-85 9 -10 19 -38 22 -62 3 -25 8 -57 10 -71 3 -23 -2 -28 -50 -48 -30 -13 -59
-21 -64 -19 -12 4 -400 272 -398 275 1 1 31 -5 67 -12 36 -8 82 -14 102 -15
32 0 40 5 54 31 9 18 14 44 12 60 -3 16 -1 30 4 31 5 2 13 22 19 46 7 33 5 54
-10 99 -34 102 -34 107 -1 148 17 21 30 46 30 56 0 26 12 24 40 -6z"/>
</g>
</svg>
